<mxfile host="Electron" agent="Mozilla/5.0 (X11; Linux x86_64) AppleWebKit/537.36 (KHTML, like Gecko) draw.io/24.7.5 Chrome/126.0.6478.183 Electron/31.3.0 Safari/537.36" version="24.7.5">
  <diagram name="Page-1" id="NYUczdxdn_X72lVpQ65P">
    <mxGraphModel dx="1364" dy="843" grid="1" gridSize="10" guides="1" tooltips="1" connect="1" arrows="1" fold="1" page="1" pageScale="1" pageWidth="850" pageHeight="1100" math="0" shadow="0">
      <root>
        <mxCell id="0" />
        <mxCell id="1" parent="0" />
        <mxCell id="2LIbxkCob-THqJTZHcNM-1" value="" style="shape=image;verticalLabelPosition=bottom;labelBackgroundColor=default;verticalAlign=top;aspect=fixed;imageAspect=0;image=data:image/png,iVBORw0KGgoAAAANSUhEUgAAA48AAAKfCAYAAADOyP0gAAAACXBIWXMAAA9hAAAPYQGoP6dpAABYTUlEQVR4nO3dCZyVdb0/8O8ArmiaC7ikaahhFipl5oaGGRhamisuqYFelyhySUmRTFzKXIqwUshMgyzNFknMNLcs614Qut7IlVtu4JIm7gz85/d0n/kfhpk5w3CWOee837wez/Kc85zfnFl8Puf7W/pExNIAAACATvRJ/7nswZeq3AwAAAB6qlN3WPff4REAAAA6IzwCAABQlPAIAABAUcIjAAAARQmPAGVy7tCtY9GLzy13/1rrbRj/ceVNcenhQ5bbt/OBR8dhEya13n5q3tzscek5X73zkWWO23ayszSQPT3ugDMuiuvHjV7u2EddNCX6b7lNdryBu+4dJ7S0oSOzbr2x9RiFbbrhvDHxwM3XZdf3PeXs2Of4MzpsZ0f358c47cf3xKYDB3X6/Fzb9zJ9LYP3PXiZdrb9WpOufA3rv2vLou9XR+3/3skHdfg9bu/raM/tV18St06+YJn7Urvet8ew7LXba3t67QVPPLzS3+f8fW8rf83O3t/0/idXtbwH8+6/Y7nnFh6/O19Dfvy270++r7Pfr66+9wCsGOERoEzyE9j85LfwhDidVCeFJ9XpJDydVO9+2PGtoeq+G67OLtNJcjqRT8/fbs/h2ePScfPwlvYlaV+ubRAtfN0V8Y+HZrV7vVB77SyU7i9s74o8P4WEJA/L6X1KgSMFpFx7X2v+nnT1a+js/eqo/Z19j1dUYRgvfO1iSvF97ujnsLPXSL5x6G7x9MMPtX4QkIfFlxc83Wlo7crXkEvva74/vV763qf3uJTvPQBdIzwC9BBb7viRrILzP/fe1hoeU9DZZJvtshP0//zV9OzkOJ3Up5P7J2b/sfW5aV+y9Yf3LGmbUhUnvXYKBalN6Xq6r23Fp712tnXv9Ks6DI8dPT8Fg/RaeSUxKQwlqXJVqq+hmM7aX08Kfw5TVbYjKZyn9zIFu/znNV2m2+nnszsfVLT3Gkke+E//ye9X+pgAdJ/wCNBD5GEwdVdM0sl3OjlPFal3bLBRPPl/J+PpBD2Fn8Kugmlfui/vylkq72p5rTxI5EEtvy/XUTsL5WEthcG2Ont+/p6sTEWpK19DMZ21v94U/hx2Fs4f+dPd2WXbDyzS7RQe0/ud/yx3V15dTj8fqVu2dakBqkt4BKiidJKdj79LUoWtbZfV/AQ8hZ22XVfzoJiCTar4dHTs7o4DW6f/JtlzU6B48em/Z/fllalcZ+3MpfY+dPfMmHP7z2Oz7QYv8xpdeX4uBYhcPl6x2Nfala+h2DE6a3+ppK6XaVvR71Upvs8d/Rzm4bGz1yjsPlx4O3+vV+ZrKKxkJun731kXVwDKS3gEqKL8RDif/KMwMKWwkk6k0wl02lKwyLt05tWddDuFo6RtBahUJ9mpSpeqgf96/tmsa2lbnbWz0B4jT1huYpiuPj/vcpoqT+1N4lLsay32NXTlGB21v1TajnnsqlJ8nzv7OSz2Gilg5h945Le7+/rtSfenrtr5xD7p5z79rBvfCFB5wiNAD5AHkzRZSRrTl8JSPiavsNqWV8vSifPPLxmXBaLCLqvlkFfp2qtuFmtnoRSM0rjB1AWxq8/PX7ttQCnl19BV7bW/qwpnDO1qdTD/etPkM5XS9uewM/kHGKn7avrZS8/JP8hI1ttk85J9DfkHB/nMri88+cRKHQ+A7hEeAXqAPJjkXTbz8WSFM0jmSxy07bqadDcQdUXqTpoHnxQYCk/c8y6nHbWzbZfGttW7Ys/P35cUlPP96Xopv4YV0d3qY/o6ulNVTFXSwjGghVXa7lT4imn7c9iZ9P2485rLW2dm/dD+I5epCOdf78p8DfnPQl6VzcPpyo6lBKB7hEeAHiIPJumE/F/PL8zuK6wmFnZVLey6mu9rq+04tnztwCSFg8JKX2fdBvMJevLujIWTxqQg0Fk7R3x+wjLHysNJXm0s9vx8SYa0RENhe9P6helYecBp72stnCm0s6+hK+9XR+0vtzS7aPq6C7/2tpPGlOr7nCv8ORx63Bc7fI30XqT2pWpg27Ui03u9sl9DOn5qa6pa5uNB830rU4UGoPuER4Aya6/qlHfDK/a4Qin0FIastreL3Z/ryoyVbY9R2M2ysJ3ttbftc9u+XuGx2uu+2V77O1qiodjX2pWvoe3j2uqs/R0db0UUe25H369SfJ+78nNYrDt0e91bU6BMVcM8qHb3a+jo+J21F4DyER4BgJIqFvgAqE3CIwAAAEUJjwAAABQlPAIAAFBUFh4LZ0Bb6QOuulosfuvNkh0PAACA6svCY1dmZOuqFERLeTwAAACqK+U83VYBAAAoSngEAACgKOERAACAooRHAAAAihIeAQAAKEp4BAAAoCjhEQAAgKKERwAAAIoSHimLtIgo7bvswZdKdizvc8dK+T4DAD3bKy8sjOf/8Xi88I/58cJT8+Ot11+LxW+8Gm++9mrL5Wvx9uuvxhuvLsquv95y35st199oeczrLZdr9F0rVl9jzVit5XK1Nftm11ddc61YZY2+sVrL9T4tl31W7xurtlxff9MtYv3NtogNNntPrL1+v2p/2RUnPFI2S5curXYTepympqaSH9P7vLxyvM8AQHX96/ln4/m/P5GFxJeeeqIlKKbt8Vj498ejT58+seV7BsSArbaKD229Vayz9nrRt2/fWGuttbKto+trrrlmvPbaa7Fo0aJse/XVVzu9Pu9/7ol7f3lNzH/s0Vi8eHH02/w9LWHyPbHOpv8OlNm2+Zbxjg02qvbbVRbCIwAA0OM88+hf44lZ98f8B//QcvmHWLr4rXjPgK3iPS0BcaetBsTAPT8dW7VcHzBgQKy//vrdfp08SK6oF198MR599NFse+yxx+KvD/8x7v/19Vmw7LXKqrHFjrvEFjvsElsO3jU23mrbbrevJxEeAQCAqnv64f+Ox1vC4j8e/GM82nK5Vt81Y/c9hsTJB38i9vjmRVlQ7EnWW2+9+PCHP5xtbaVAee+998Zd99wbP54+OV579bV4T0uI3GyHj2SXm2zz/iq0eOUJjwAAQFU8dNet8eBtN8ajD9wd72wJY7vvvkd8buSnYo8rvxFbbrlltZvXbSnopu24447Lbj/xxBOtYfLGL0+Jl/75Ymyz817xgY8fFNvttW+VW9t1wiMAAFAxT/3tLzFn5o0x+9YbY+sBW8YxI0fGAd+7PDbbbLNqN61sUhBO22c+85ns9j/+8Y+45ZZb4prrJscvvnZ6DBp2cOy478Gx6Xs/UOWWdk54BAAAyuq1l/8Zs279aTz0m5viXwufiaOOPCIu+82t8YEP9OywVC4pKJ900knZ9pe//CWmT58ePzjtyHhHv41ju5YgOXj4wbHmOu+sdjOXIzwCAABl8ff//q+490dXxqyZP4tPH3p4XPrV8TFixIhqN6tHSQE6bRdeeGHMmDEjfvijaTF+ry/FTvseFLsecVJs/v4PVruJrYRHAACgpLLQeP3k+PuDf4jTTj017pg+NdZZZ51qN6vHS8E6bVd958qYMmVKfO30o2KLHXeN3Y48uUeESOERAAAoiX8992zcNnliPPrHO7LQ+KVf32j95W5IQfu0006LU1vew8suuywLkdvssnfsc/I58Y4Nq7eGZMOFxxef+t94ct7ceOaRh+KtV/8Vr//r5Xj71ZfjtZbLNxa9HK/+K11/KRa1XK71jnWi7zvWjTXWTpfrxKprrROrrZUu35Hdt/HW28W7Bg6K9TZ9d7W/LAAAqKr7p383Znx7YowZMybuu+nJ6NWrV7WbVPNS8E4h8otf/GKcc8458bUDPhTDWgLkkCNPrEp76jo8Lnjib/HUvL/Esw//JZ7529wsNK6+xhqxw/Y7xGuL/hUHHnBArLvuuu1uKe2//PLL8dJLL7W7/fznP4+/z/9L3HrZuHjj9ddj820HxQZbfSA2bQmTmw78QPTf8r3V/vIBAKDsnv/H4/HzC74Ym6yzZvz+3ntixx13rHaT6k4K4mlM5CGHHBJfGnd2TLn31jjg7Mtjg83eU9F21F14fPQ/74v/ufNX8ZeWbY3VV89+ePcYvGN86ODTs+sbb7xxl4/1zne+M9vak9J/7plnnonZs2fHgw8+GPc/cGvcfdWF8frrb8S2H90/PrD3/rHVh3Zf6a8LAAB6mtkzb4qfXXBqnH32l2PcmV+qdnPqXsozt8/8dVxyySVx3hEfjU+ffVnsOPygir1+XYTHJx78Y0tgvCXmtgTGDddbLw49+NNx5Tm/jW233bYir58Cado+8YlPtN7317/+NX72s5/FtG+dEze9+M8YuNeIGPSxT8aWO3ykIm0CAIByuuOqr8Vfbv1J/PLnP4uhQ4dWuzkN5YwzzogPfvCD8dnjT4iF8x+JYSeeVZHXrdnwuHTJkrjnuknxwM+ujbX7rhmHHXxQXDbjlzFo0KBqNy2TguvZZ5+dbXPnzs2C5I+/fnq88trrMfhTR8dHj/l8NOkHDgBADfr1NyfECw89EH/6w++jf//+1W5OQ0qB/YH7fx8jPvmpuOWK12O/seeV/TVrMjzeP+07cccPvhVDP7pXXHbRxBg5cmS1m9SpFGjT9pWvfCVbAPSmX/wqLtx3u9jjM1+o2mBXAADojl987Uvx9tOPxt2//U2svfba1W5OQ0vB/Xe/vT1GfOqA7PvyqTO/XtbXq6nweP9Pvx/3/nBSfGjwDnHrL2+OnXfeudpNWmEp6KbtgQceiIkXfz0u+eT3Yrejx8Suh3y22k3rsbbffvuservLLrvEH/7wh5g2bVoMHDgwBg8evNz1th8k5M8dNmxYzJw5c4VfO41l7ejYAACN5r4fXxUvzvuv+K8H/hCrrLJKtZtDixTg77htZnzoI7tk35/dDz+hbK9VE+HxobtujZmTvhLv23pA3HDdNbHnnntWu0krLQXfX918U9x9991xQUuIvOKGq2Kfz02I7fbat9pN63FS+Fu6dOky96VQ193nAgCw4v72hztj5rfPjwf+cL/g2MOk78e0H14bO7cEyA3fvVW8d5fyjEHt8eExDcR94KZr4gdTp8SIESOq3ZySS0E4bTNmzIhjR42OJ+fNqdiA11qQLyqbLtP0xF/+8pdbq43dee6sWbOyWaryimJ+u/DxSeH9AABE3D75/Lj2mu/H+9///mo3hXZst9128YOW789ZXz2/8cLjKy8sjF9cMDbeuUrEnFn/FZtsskm1m1RWKRinr/PYUcfHD089Mg48+/JYe/1+1W5W1aWqYQp1eWBMAbAcz039xUeNGhVTpkyJiRMnZsFSxRIA4N9Sd8gtN904Dj744Go3hU6k78/VU79ftu6rPTI8zvv9b+OmiWPjhM8eGxdOPL/azamYFJB/c+uMGD9+fHz76KEtAfKKGLjbx6rdrLqXJjFauHBhFhyTc845JyZNmpSFyHqsdgMArKjfff+yuPWXP692M+iCr35lQnzikwc0RnicdetP45ZLzorvT7k6DjzwwGo3pyrOP//8rMvkqONPiP3OuDgG73tItZvUEAq7rSbz58+vTkMAAHqQh//4u3j3u99dk5NVlkLek61WJk9M36fNW75f6fu2zUc+WtJj96jw+Oif741pZ/9H3HXXXbHHHntUuzlV9elPfzo23HDD2GuvveIdG2wUW+3U2O9HufXr1y8WLFiw3P1dnZgHAKBePXTnr+LgAw+odjNYAYcfdGDM/N0t9RseF85/JKZ/eVTWhbDRg2MuvQ/p/TjxlFHxH1NmRL8ttq52k2pWPvlNmpgoXZ88eXLrvvQp0tixY7NuqqnLanrPjzjiiC5PzNOI2ptwaGWOk97rJL3vxpoCQM/y7MP/HR/9wqhqN6Nb2psQMT//SEu53Xbbbdm+fO6LJN+fpMfUopQjpv74ZyU/bo8Ij2+8+kpMHzcqzh43Lg499NBqN6dHSe/HM888E1e0vD8ntATI1ftaiLW7UnfgNJ40bekPRKFUdUx/XNK+/LEpVKo8llf6A56HxRTaAYCe558Lnop3vetd1W7GCuvKhIjpdtqXzgHz8Dh8+PBlnpcHzFqSvl8vtXzfSq1HhMcbvjw6Dtl/3zjti2Or3ZQe6Qtf+EI8+fQz2ft0zDdvqHZzKq7wl7wr1zt6bqoqpi2X/4Ho7BiF4aZejR49OqZOndp6OwXn9D61rS4W3s6NGzeu9Q9q/rwkBfH0Rzc/bvrUbvfdd28N5/kf5MLKY6o6JukPfXtdiAGA6nj+madqbuWDrkyIeNFFF2WX6XY6R8mLBul5p5xySuvz8vOXWpLC4+EnjCn5caseHv/0ix/F6otfi0u+dnG1m9Kjpfdn9yF7Zu/Xhz91ZLWbQ51IfyRTwMsDch7mCkN2Z1JVPD037+qb/vjm3ViffPLJZfYl7X26l8sDpOAIAD3L+httGk8//XRsvvnm1W7KClvRCRHnzZuXXRYOy0lzY9SadB42/apJ8eUDTyzpcasaHpvffit++92L4qfTrqtmM2rGxK+eF4ceeXR88BOHRO9VVq12c6gjKTSmP5IrWmk966yzssvUxffiiy/OxpLmofCYY45p3ZdCYX677ad7AEDPtsHGm2ZhpNbCY3cmRMznu8jPjZJUiaw16fuVQn+pVTU83n/jNTFkj92zGUUpLr1PQ4fsEX+46QdlWbeFxpP+KKaKXz4oPCnsflqMCYUAoP712/r9ce+998auu+5a7aZ0WXcnREznRil0pqE5M2fOzJ5fi9L3a+NtPlDy41Y1PM65ZVp89/JLqtmEmjPqs8fFyV88Q3ikZNIf13zdorzbaj4WoJjUtSP/VO7ZZ5+NLbbYolzNBACqZLuh+8f0KRfHmWeeWe2mrJDuToiYPy9tgwYNyrZa8+Obbo6PjDqr5MetWnj837l/jtV6Reyzzz7VakJNSu/XKr3+/f69e9BOVWlDmh3XrK/lV4n3OX2algaPt+3SUdjPv73lTXLXXntt9kc4H5Te1dAJANSOtFbgT849KR544IFsAfpa0pUJEdsbtlPLEyam79OTf//fkq/xmFQtPD4++w8xpIes55iXsVf0h6S7z1tZH91zSPb+VSs8/unn18frr7wcex39uVit71pVaUM1VPr7XYn3OXXjuO+++5YZTJ6vuZh0trxJLn9uet7KrPmYj41Mx6vlP9gAUI/2+uypcc6E8+L2mb+udlMoYsJ5X42ho04ry7GrFh6fmvPHOOo/jqnWy9e0PffYPb72vWtbrn2+Kq8/5MiT4sydN4o7vn9Z7N3yh6TRQmSlVOp9Tv35O9LZ8iadBbzOPr1r++leV5ZcAQCqKw2Z+vYt0+PGG2+Mgw8+uNrNoQPp+/P4k8/ESRcdX5bjVy08Lvz7Y/H+97+/oq/Z0Xp2bdeXy5cSyKU16tIJdl55Sv2e586d27q/0uvSpfft+b8/XrHXa8+Iz0+IGZPOi7t++O2485orYuhxY0sSbtq+x3mYKKyM5esOJvkYvSR9n9LtMWPGZN0nO1qjMH9uR8fs6s9JJZTrfQYAWFH7nDI+jj3umNh2221ju+22q3ZzaOO///u/45jjPhtHX3Jt2V6jauHxlX++EBtuuGHFXq+z9ezari+XgmO6L3Wjy4Nk4cDaQw45JObMmdMadCq9Lt0GG2wQL7/4XEVfs61UFfvNVV+P117+Z3a7bbhZWfl7nKSwli8qn74f6fuWfx+HDx/eui+FvnzB+mI6OuaK/JxUQrnfZwCArnrvLkNj2OfGxxGfOSb+849/iFVWWaXaTeL/vP3223H0McfGfp8/N/s+lUvVwuPLLzwf66+/fsVft9h6dml/4f35mnSFqj0pSArd27x/+zh1h3Wr2o6kd58+0bx4cbz52qLs9h3fv7wl4EzKrr/yyiux9trdm/Alf4/ziVjy7pIpxKUJXlLgGzBgwDL70mVhxbAjnR0zf93urnvYFSvzfcvf59u+e3G2AQBUUuq++sL/Php7DxseM37x826f61E66Zx7xKcOiPW2/WB85NDydFfNVS08rrP+BvHCC5WrPnZ1Pbv0uLbdFnua559/Ph55aG5c9uBLVW3H+L0GxKsvvZBd77PKqqkfaOx51MnxsVGnxbjd3lXSPyaFXUyT+fPnZ+GxrbQuz8occ2XXPeyKFf2+FXufAQAq6VNnfj1u/dZX4qMf2ydm/PIXWY8uqiP1iNuvJTiu+76d4xNfOK/sr1e18Lj2O9eP5557rqJdV7uynl2qSqXg2HasXE+S3rd3vHODqrbhnh99J5rffmu5MFOOsXgpELbXVTR9r9pKFcWVOWayMusellol32cAgK7a9/NfyXpB7bzrbvH9q6+KoUPL11WS9t15550x6vgTYrvhh8beJ1RmDc6qhcf1NhuQDep83/veV5HX62w9u7TQeVv55CnHHntsJZq3QtL71u/dy1fdKmnGt86LJUuas3F35QwzKcSNHTs2+/6l6l8+zjQfk5r2pUpxPnYxl3//2lujsLNjPvbYYyv0c1JulXqf27P99ttnkxblE0YBABQaduJZ0W+LreOTB3w6Jow/O84444xqN6lhXPS1r8cFF1wYh42/PN7/8U9X7HWrFh7fvcNH4u5774tDDz20Iq/X2Xp2bdeXu/jii1sfl7osPvvss1kIadtNslrr0qX3bbPtq7dA6z0/+m5FZ/1MQS69x/nY0/Q9ySuD+b5ULU4ztBZ2W+1sjcLOjtnVn5Nyq/T73FbhbLcAAO3ZcfhBsdl2O8YPLvhi/PbO38XFF16wUus+07nUK+5L486Oha+8Fl+Y9rvYYLP3VPT1qxYe37PjLnHbJadX9DU7q54UniTns3zmCse75QGjvedVyu/uvic+fsY3Kv66uQ8fcGSs3rc8g6MLu4wW6uqagoV97jtbo7CzY3b156Tcyvk+F5OH53SZV3nbBup0X3tLq6THpbCejxtOlcvdd9+9Najns9wCAPUhBZjR3/1F9sH3bnsMibGfH5P18OrVq1e1m1Y3lixZEuPO/vckjyM+d058YuSJVWlH9SqPg3aKN5sjbr/99thnn32q1Yyak96vN5f8+/2rlmoFmkZTzfc5D4F5SGy7tEkKjAMHDmx9fOHSKsmTTz6ZHSMPl/kx86VvhEcAqD9Djjwxdvj4AXHb5Imx8abvii+dflqceuqpy01SSNel86evf+PSuPzyy2OrjwyNM3/+n/GODTeqWnuqFh6THT95ZFw19fvC4wpI79cHW9432lfpNTcbQeoekSYiOuWUU7Lb+dImhV25204odMwxx2SXeVff/Ha+9E2+FAoAUF9SsDnkK9+Ov//3f8WN065sCT6bxskn/kc238Q666xT7ebVjJdffjm+e9XVWWjccsddYuQl18Xm7/9gtZtV3fC4y0HHxtc++a246667Yq+99qpmU2pCep/uufe+OOP0b1W7KTSQfKKgwrC30UYbdbhcCgBACjqbXzg1C5FXTTg5zjvvvDjk8JHxmSOPqPqa6T1Z+nD++h9Nixt+PD12/sRBPSY05qoaHnuvsmp87MRx8eXx58b9995TzabUhLPOOTc+ftK47H2DSsm7pxZWC9MkUltssUUVWwUA1IJ1N9o0nn7sb3H0xVPj1ZdfjNMnTIwTTjo5jjnqyKyH0gc+8IFqN7Hq/vKXv8R1LYExDfdZa8ONY9Cwg+L8uy6INdd5Z7Wbtpyqhsfkw586Mh664xdx1llnZbOc0r4zzjwr3lplzRi8vy6rlpCorBQY0yy2abmTfMxj6saaPjWsxvIlAEDt+O2US2OV1VaPu6+/MsZef0fsftjx8dTf/hIP3HpjTBm2b2y55ZZx7FFHxH777RebbbZZtZtbMf/4xz/illtuiR9cPy2eeOKJ2H74wXHYJdfHpu/t2WG66uExGXnR1Lhq9IjYeOON4wtf+EK1m9PjfPOb34ybbrk1jr96RrWb0iNYQqLyCpdESdJEOtVa+xIAqA0vL3wm7vvx1dn1hfMfib/ed3tsu/s+WUBK235jz4uH7ro1fjjjpqwn4nrrrRdD9xwSe+yxR7alYFkvUkC8995746577o177rknXnjxxRj4kb3iA4eeEofvtW+1m9dlPSI8plklD28JkF/5vwBZqbUfa8FPfvKTOO+CC+M/WoKjWU4tIVFJbQN6e4G9vaVVOnteCpyCPwA0hlR1XH2tteONRa+0bP+K33zva1l4LLRdS3Da7v/C09MP/3c8Puv++O4Nv4hTzzgz+vZdM/bac8/Ya8i/w+RWW21VjS+jWx599NHWsHjX3XfHa6+9FgMG7xrv3nGXOPCCY2OTbd5f7SZ2S48Ij0m/LbaOI1oC5MiRn8oCZPoBaXTpBy6dmJ/4vV9k7w+WkAAAqAUvPftU/P4ny55XLXj8bzHv97+Ngbt9rN3npECVharDT8huP/PoX+OJFCZv+nWcefb4aH77rXjPgK1i6623im232TqbuC8FyrSlqmWlvfDCC/HYY49lQTFtDz/6WPzt4Ufi8ccejT6rrBoDPtgSFnfYJQ675ITYeKttK96+cugx4THZaqc94ogLvhefPODAmHr1VfHpT3+62k2qmptvvjk+O/r4+MxFV2XvC8uzhAQAQM/02+9fFn1WXS370H9J8+JoXrw43nj1lfjN977eYXhsKwWutO166Kjs9r+efzae//sT8fw/Ho97/v54/OoPP4sXn3w8FrTct0qfPrHle1KYHBADW8LlWmutFX379s0uO7u+5pprZlXBRYsWZdurr77a6fV5jzwaj7Rs8594PN5u+Zr6bbZl9Nv8PbHuu7aMdbfaOXb88H6x37aD4h0bVG8txnLqUeExGbzvIbHmO94ZJ475QnYif/7551e7SRX35XPGx9RrfhCHnv+9Lv9yNSJLSAAA9Dz/fPbJuP+n348+LYFu648Mjf+d86cY9LFPxR9uujae/OuDMe/+O2Lgrnuv8HFTIEvbewbvsty+V15YmIXKF/4xPx54an40/+OpWPz6q/Hma4vi7Tdei7dfa7me3X413si2RS3ba/H6q4tijb5rxeotIXL1Nddqud43Vln939dXWbNvrLZGy+2Wrc8a6fqasc77hsTuwz4TB2z2nlh7/X7LteOOqZfFtnt8vFvvWy3oceExSYHpc9fdGb+48IvxwL4j4gdTr45NNtmk2s0qu6effjqOHXV8vPBWxCktX397P5D8f5aQAADoee764bdj0ND94uP/cWbWDXXCx94bw046K/Y54Utxw1c+F/dcf2W3wmNn0nlz2rbc4SMlPe6KWPzmG/G7H06KXQ4+rkcus1EKPTI8Jumbf9SlP4rbvntx7DD4g3HN1Cl1vaBo6mqZuqnu9Olj46gTzqx2c2qCJSQAAHqWNMPqRw78TGy89fuW27du/03iP77zs3hpwdPx7GPzYqMBA9s5Qu26feqlWYC867pvxyc+N77azSmLHhsec8NOPCveNXD7OHns6bHt5Ctj3Jlfij333LPazSqZu+++Oy64+Ovx8GOPx/5nXdY62xRdYwkJAICeY51+G2fbMtKEh/H/Z8dPITL611evwsVvvRn3XP+deOuN1+N3P/hm7HnUydF33fWr3ayS6/HhMcmn8E19p4845rj40OAd48stIXLnnXeudtO67YEHHmgJjV+L/5r9YAz5zOfjCxcfV+0m1QxLSAAA0JOkZUl691klu97U1Cvuum5yjBhzbpVbVXo1ER5zux7y2Wy750ffjf0+dWB89KN7xYGf3H+5kNCTpSUifvmrW+K3d/4u9jrm83H6V66pdpMAAKBssg/oC9blrjdpCZF7pn03W8syWdxy+3fXfDP2PPKkWGu9DavcutKqqfCYG3LkibHHyBPid9d+K8748vj46gUXxmEHH5Qt7ZEWhe9p0iL1P73pZ3HjTTfFK6++Hh868DMx7tZvR1OvXtVuGgAAsBLuvv7K6NXmvL5Xn95Z9XG/L3ylOo0qk5oMj0kKXkOPG5ttTzz4x7jrt7+M7+33ydhgvXfG4YccnAXJbbet3mKcf/3rX+MnN94UN/3sZ/HcCy/Gdh/dP/Y54xtVnQEKAAAqLo15rNPKY1rD8varL4m333wzVl/rHdnSIGusvU68ncY+XvutbOxjPa2gULPhsVAKZFkoO/3CePQ/74vb7vhVXPHtj8Waa6yejWX78AcHxw477JBd33jjjYsfcAU988wz2XIRDz74YPzxP2fFnAdnx2uvvxHb771/7PG582OrD+1e8tcEAACqK1UXm99+O1uWZJ/Rp8VZu2wSE37z1/jTL66PX11+brZsyf5f/Gq1m1kydREeC6WglrYDz/xaLHjib/HUvL/Eb+fNjZ/8+hsx/69zY4011ojtt98hXl/0rzjggANi3XXXbXdbZ5114uWXX46XXnqp3e3mn/881lzrHTF3zoPx+uuvx6YDB8XG7x0UG3143xj5mS9F/y3fW+23AgAAqq5exzw2L347mxznaw88u9xwtN0OHZ1tacLPV55fEGtv0L9KrSytuguPhVKAS9vgfQ9uve/Fp/43nmwJk8888lD8avaj8dail1u2f8Xrr7wUr/7r5XitZXv1lZdj0csvxVrvWCfWWmfdrPS8Zsu2erpsua9P33XiHe/fLTYc8L7Y6ZQLYr1N313FrxIAAKi0NLvqR48Zs8x9qXtu4Qz+abLPelLX4bE9KeilbdDe+1e7KQAAUP/qeMxjo2m48AgAAFAWKSTX8drhwiMAAFA2S6M+xzw2IuERAAAoq6ZojPDYdsxjvREeAQCAsqnnMNVohEcAAKCsGmbCHGMeAQAAuqmOw1SjER4BAIDyapDKYxrbmU0QVKeERwAAoGyMeawfwiNl0zB926vM+wz17dQd1q12EyrusgdfqnYTgBJrmPMVYx5hxfkff2X0pPc5neD2pPZAPWmkT+0b5gQTGkkD/Q2rd8IjAABQXg3ywZB1HgEAALqpnieQaTTCIwAAUFZpFtKGYMwjAABAN9VxmGo0wiMAAFBexjzWBeERAAAom3oOU41GeAQAAMqqUZbhSWM763mCoA7DY1qzbecDj47DJkyKG84bEw/cfF3rGm5tbwMAALRL5bFuqDwCAADl1SCVR7OtAgANZfr06XHEEUdk45Rmz54dgwcPjmnTpsXIkSNj++23j7lz58awYcNi5syZ1W4qUAOMeawfwiMA0KEdd9xxmRO/FBydCAIrqmHGPJptFQCoRXnVMFUJb7vttuy+UaNGxZQpU1ofU3hCl1cXU9Ux6d+/f1ZdzCuP+f35c/LHT5w4Me677z6VSKBd9RulGk+n4TFNipO2XJpEBwCoPemT8BTyxo8f3xoeUzjMw2Tal8LhwIEDW4PiggULsgBaeIwUHNP+O+64I9tSeEzBcffdd6/WlwbUgMaoO4YxjwBAbbvooouyyxEjRmThMQ+ECxcujFNOOSW7fs4558SkSZNixowZMWDAgKLH3HvvvePiiy/OrqfjqToCHarjMNVoOg2PxZbqAABq07x587LLNKYxt9FGG8X8+fO7FB7z7q0pOKbnAXTKmMe6oPIIAA0odU9NUvjLA+Szzz4bW2yxRZePkcZSjhs3LnbaaadyNBGoE/UcphqN8AgADSgFxn79+sXkyZNbxzymbqypa2telSwmjXNM3WDTGEiAzjTKbKvGPAIAdSlNiJNO6KZOnZrdTiEwhcq0pS6pad+sWbM6fH4KmmmcZOrCms/sqsIALMffhbohPAJAnWq7RmPb20lHYa/w/o6up8l18i6v6TJ1YwVoV4NUHpta/i2t48VJLNUBAKywfNmPziqTAIkeCfVD5REAWGFpaY+0FbJcB9CRxhnz2LLVcVbu0lIdAAAA3aLyWDe61G01X98RAABghTVI5bFh13lMgfGG88Zk4TGNdVSFBAAAVlQ9TyDTaDqtPKawmLYUHttOnpOoSAIAnZk+fXq27Ec9fxIPFNcUKo/1oOiEOU/Nm1uJdgAAAPWojsNUo+k0PF518kEx7/47suu6rQJAz5RX9wYNGhRz585t/dS7cHbDtKRGvibj7NmzY/Dgwdn1tDZjuj1mzJgYMWJEdn/+2Pxxhc/t6JijR4+OqVOntu47//zzs9lYU7uS/v37x4IFC8r4LgA9WoOMecy+zjoOyx2Gx8I1HXVPBYCe75BDDok5c+Zk11NYGzVqVEyZMiVbkzGFwDxUDh8+vHVfCn233XZbl47f0TFTyEzBMT9+HjpTeJw2bVoWIAVHaFz13I2z0ViqAwDqRKocJqkSuXDhwizkJSnETZo0KQt8AwYMWGZfuiysGHaks2Pmr5tCY6pEpm1lThYLP8AG6kOjrPOYxnbW8wRBnc62mpw7dOtY9OJz7e4DAHqutidr8+fPz8JjW/369VupY6awmCqMeVfYJO+22h3OMwB6pg7DY5oo59LDh7S7L30ieNRFU2LwvgeXrWEAQPelQNheV9FUQWwrVRRX5pjJyJEjsy3Ju63mFUmAhtGoYx6nn3tSdtk2JN5+9SVx6+QL4s5rLhceAaAHSiFu7NixWZfSVP3LJ9RJ1cF8XxrrmI9dzOWT38yYMSO7Pnny5C4d87HHHsu6sLYNlukY8+bNq8wXDUDZdRgen374oRi4697LBcR9jj8jnpj9x9ZZWAGAnicFudTFdPz48dnt1I00rwzm+9JYxzRDa2G31fS49Jy0pclxunrM++67b5kurSlUJml/Cpn1vvYZQFLvf+uKrvMIAPRshV1GC3V2AlO4L82imktVxcKxivkEOcWOOXPmzC69FgC1q8PwuMk222XVxdRNNVUbc+l2uj/tBwAA4P806pjHocd9Ma4fNzob35i29vYDALXPGowAdEWH4TGNdUxbe2stmUIbAABgWQ0/5lFQBAAAoFsT5txw3ph44ObrBEsAqDHpU/F8yY4VlS/P0Z1P1VfmdQFqRqOOeQQA6k89d6cCoLyERwCoYXk1MK3XOHfu3NZwWLjm4qxZs2LHHXdsvb+wAtjR49ruS8dNr5OkpT3ySXY6ev7s2bNj8ODB2fVhw4aV7gsG6MGaWv4tjfr9kE54BIA6cMghh8ScOXOy6yncjRo1KlujceLEiVmIa6/i2Nnj0r7zzz8/W/Nx9OjRMXz48Cx0pgCZB8fOnp8eX7jvtttuq9A7AUC5dBge25tlFQDomUaMGJFdpkrkwoULs9CWpPA3adKkLMCl67nOHjdgwIBsX/749JhUSZw3b16Xnp/akvadcsoprfvGjx9f/jcBoMoafrZVAKD2FHYnTebPn9/lx6Xw2FbqjloYHjt7fv64wi6w/fr161K7Aei5OgyPZlIFgNqUglretbQ7j0tVxZV5nVSlzC/zAJkqkQB1r5FnWz136Nax6MXnsus7H3h0HDZhUkUaBQB0T5oIZ+zYsa3dVPMJddouk1Hscel6ui9dT2Mef/WrX8UVV1zR5eenYDlu3LiYOXNm9hgAal+H4fEbh+7WGhyTtK7jeptsHvscf0ZFGgYAdE+qBqbupPk4wzTxTXvrK3b2uDRzapoAJ59hNR/Dk27nY3o6e36+L21pJti0AdS7hh3z+PTDD8Um22wXp//k9/HUvLlx6eFD4onZf6xk2wCAIlJYay8YtnfykncnHThwYKePS1J30/b2tb2vs5Okej6BAmhEnXZb3Wy7f6/PtOnAQbHWehtWpEEAQOmlrqdTp07N1lwsnMgGgBJq5DGPAEB9SEtq5MtqAEB3dBoe0zjHtOXm3X/HMus/mpEVAADg35pa/i0NlUcAAAAamHUeAQAASqFRxzwWdk/tiIAJAADQGHRbBQAAKIE6Lzx2PTyqMgIAADSuomMezx26dSx68bnlurHue8rZsc/xZ5SzbQAAADWjqakpltZx6bFo5fGrdz6yzO08TN46+QLhEQBqzCuvvBJrr712tZsBQA0qGh47mjhn5wOPLnVbAIB2pE+yAagBdT7oscuzrZ7243ti04GDyt0eAKBAKeccePPVRfGVfd4bX7n9b7Fa37VKdlwAGkOXJ8y59PAhy91nEh0AqB2/nXppNC9eHHdd9+0YduJZ1W4OQN1p+DGPAEDtS1XHu6+/Mha/9Wbcec0VsdfRn1N9BGCFdBoe07jGwyZMihvOGxMP3Hxda6Uxvw0A1IZUdezdZ5UsPC5dskT1EaAs0hh1lUcAoEYVVh2TxW+/pfoIwAoTHgGgzhVWHXOqjwClZ8wjAFCzUtXxrusmR6/evWKNtdeJ1195ObtMQfKOqZepPgLQZcIjANSxVF1Mn4R//Pgvxd6jTs2W4rrg3v+Ne370nbjlm19RfQQopUZd5zFJk+IUTozTdu1HAKDneuPVV7Iq49f/tGC5fUOOPCnb7vnRd7PHrd537Sq0EIBaovIIAHUqBcIUEDsz5MgTK9QagPrXsGMe82U5AAAAQOURAACgFBp5zCMAAAAkwiMAAEAJNLX8WxoqjwAAADQw4REAAKAEGna2VQAAAMgJjwAAAKVgtlUAAAAanfAIAABQAsY8AgAA0PCERwAAgFIw5hEAAIBGJzwCAACUQFPLv6Wh8ggAAEADEx4BAABKwZhHAAAAGp3wCAAAUALWeQQAAKDhCY8AAACl0NSy1W/hUXgEAACgOOERAACgBIx5BAAAoOEJjwAAACWg8ggAAEDDEx4BAABKor6nWxUeAQAAKEp4BAAAKAFjHgEAAGh4wiMAAEApNDVFqDwCAADQyIRHAACAEjDmEQAAgIYnPAIAAJSCMY8AAAA0OuERAACgBJpa/i0NlUcAAAAamPAIAABQCsY8AgAA0OiERwAAgBKwziMAAAANT3gEAAAoAZVHAAAAGp7wCAAAUApmWwUAAKDRCY8AAAAlYMwjAAAADU94BAAAKImmlk3lEQAAgAYmPAIAAJSAMY8AAAA0POERAACgFKzzCAAAQKMTHgEAAEqgzguPwiMAAADFCY8AAAClUOelR+ERAACAooRHAACAEmhq+bc0VB4BAABoYMIjAABACTQ1NcVSYx4BAABoZMIjAABAKZhtFQAAgEYnPAIAAJSAMY8AAAA0POERAACgFIx5BAAAoNEJjwAAACVgzCMAAAANT3gEAAAoiaaWTeURAACABiY8AgAAlIAxjwAAADQ84REAAKAUrPMIAABAoxMeAQAASsCYRwAAABqe8AgAAFACKo8AAAA0POERAACgJJpaNpVHAAAAGpjwCAAAUALGPAIAANDwhEcAAIBSaGqKUHkEAACgkQmPAAAAJWDMIwAAAA1PeAQAACiF+l7mUXgEAACguCw8nrrDuiU74Kqrr1nS4wG1w+8+1Aa/qwDl85+/+nFMG39itZtRFll4vOzBl0p2wPQ/pFIeD6gNfvehNvhdBSif6eNPiq0+PCR22n9ktZtScun/H7qtAgAAlIJ1HgEAAGh0wiMAAEAJWOcRAACAhic8AgAAlIDKIwAAAA1PeAQAACgFs60CAADQ6ITHOpcW8wQAAMrPmEdq3mUPvlTtJgAAADVOeAQAACiJppZN5REAAIAGJjwCAACUgDGPAAAANDzhEQAAoBSs8wgAAECjEx4BAABKwJhHAAAAGp7wCAAAUArGPAIAANDohEcAAIASaGr5tzRUHgEAAGhgwiMAAEAJmG0VAACAhic8AgAAlILZVgEAAGh0wiMAAEAJGPMIAABAwxMeAQAASsGYRwAAABqd8AgAAFACdV54FB4BAAAoTngEAAAoiaaWrX5Lj8IjAAAARQmPAAAAJWCdRwAAABqe8AgAAFAKdT7dqvAIAABAUcIjAABACRjzCAAAQMMTHgEAAEpA5REAAICGJzwCAACURFPLpvIIAABAAxMeAQAASsCYRwAAABqe8AgAAFAKTU0RKo8AAAA0MuERAACgBIx5pGa88eor8aef/yiGHHlih4+550ffiQ8fcFSs3nftCrYMAACodcJjHUmB8PVXXoozd94oRnx+QkuIPKl13x1TL4vfXHVJDD3uC4IjAACUgzGP7fvGobvF6T/5fSnbQgnsdfTnsqA488oLW8Li17P7zh26VSx+881Y0rw42w8AALCiOg2Pp+6wbuv10358T2w6cFA8NW9uXHr4kHK3i25are9asefRp8R9P746Xnv5n9G7T59Y9OLz0WeVVWOvz3wu2w8AAJRew455TJXFQt87+aDYY+QJcevkC7LbA3fdu7wto9s+Nuq0bGxj0rx48b/vbPlBTvcDAAB0R4fh8emHH8oC4glX3hS3X31JFhrz4HjURVNi8L4HV6yRrJhUXUzjHVP18c3XFmVVxz2POlnVEQAAyqqpZWvAymOyTv9Nssv37TGsNTjm3Vfp2Qqrj6qOAADAylqhCXP2PeVswbFG5NXHu6+/UtURAAAqoGHHPLZn/XdtWa52UAap2njH9y9XdQQAAFZap+HxgZuvy7bc9eNGZ1vusgdfKlvDWHmPzfp962XqegwAAJSPyiM16X/uvS2mjDksTjvttLi05XL0pBsESAAAoNs6DY87H3h0HDZhUtxw3pisAplXGvPb9Ex5cLzllltixIgR8dGPfjT2228/ARIAAMqpqSlC5ZFa0TY4Juky3RYgAQCA7hIe60h7wTEnQAIAQHkZ80hN6Cw45gRIAACgu4THOtCV4JgTIAEAgO5YoaU6Tt1h3XK3hxW0IsExJ0ACAAArSuWxhnUnOOYESAAAKK005nHJkiXVbkbZdBge07IcaUmOfzw0K07/ye9b70/Vx31POTv2Of6MijSQ9q1McMwJkAAAQFd1GB7ztRzXWm/D1vtm3Xpjdnnr5AuySwGyOkoRHHMCJAAAlEijrvP40N0zs8uv3vlI632D9z04+m+5TVx6+JC4d/pVwmMVlDI45gRIAACgmA7D46IXn4udDzx6ufs3HTgou79wIh0qoxzBMSdAAgDAymnodR5fXvD0Ct1P+ZQzOOYESAAAoCMdhseBu+4d8+6/I26/+pJluqem2+n+TbbZriINpDLBMSdAAgBA9zRs5XHE5ydkITFNjpNPkFNo5Fe/U9aG8W+VDI45ARIAAGirw/CYxjam5TrOHbp1Nv4xl2ZfLZxEh/KpRnDMCZAAALCimlq2Bqw85gTF6qhmcMwJkAAAQK7D8HjqDusWfXKqTFJ6PSE45gRIAADomoYd80h19KTgmBMgAQCATsNjWs/xsAmTYtatN8b140bHURdNicH7HlyptjWcnhgccwIkAAAU0dQUofJIufXk4JgTIAEAoHEJjz1ALQTHnAAJAADtM+aRsioMjrNnz85CWW7YsGExc+bM7P7BgwfHqFGjYurUqdm+888/P84555xO902fPj2OOOKIGDRoUMydO7f1Bzn9UOemTZsWI0eOjP79+8eYMWOy502cODHGjx/f7uNnzZolQAIAQAPqNDw+cPN12ZZL4x7TljPb6sppW3FMYSwPc3mAS+Ew9+c//zkLdHkoLKxSdrbvkEMOiTlz5mTXU0hMQXPKlCnZa6THDhw4MHbccceYP39+9pj77rsvC67tPT4F1fQ6AiQAALRhzCPl0DY4ppBYWOJO96XwWOiss87KLlO4vPjii2Py5MlxyimndLhv7733bj1Wkl5j4cKFrc9JVcZJkybFjBkzYvfdd89CY/64K664Igui6fEpOBY+PoXIdF2ABACAxmG21Spob4xjqvyNHj26tetpe1KFsDv7cvPmzWt9rdxGG22UVRxToEzBMK90phCawmNS2G01ySuUiQAJAAD/ZswjJdXR5DgpqKXgmMYUpnCXj2UslMJfHvyeffbZ2GKLLbq0L5cHzHTsto9Nt1OVMVUsC8Nlv379YsGCBZ1+TQIkAADUP+Gxgroyq2oe3I499tjl9l177bWtFcEU9AqP0d6+vNJYeOwUBlNAzMcwFh4nTayTAmwad5mk440dO7a1m2o+njIfl1lIgAQAgNRjT+WRlVQsOOZjFfMuomnG1FQVTOMRCx+f708BLq9QdrSvbXhMUhUxPS7vHps/Ntlpp52yWVkLg2H++Hz8ZWpX2+CYEyABAKB+mW21Arq6jmM+I2ouVfuSPCBedNFF2dId7WlvXwp57QW9jvphp2pkPjlOVx7fHgESAIBGZcwjK6WrwbGeCJAAAFB/OgyPqoorr1TBMXUr7egTjM72VZMACQBAo2n4yuO5Q7eORS8+t8x9gmVxjVhxbEuABACA+tFheHxq3ty49PAh7e47dYd1rfnYCcHx/xMgAQBoGGkCy0asPE4/96Tssm1IvP3qS+LWyRfEnddcLjy2Q3BcngAJAAC1r8Pw+PTDD8XAXfdeLiDuc/wZ8cTsP8a8++8oe+NqTT0Hx3yNx+724RYg6Sm+uP063X7u5XNeLmFLAIB60/BjHumaeg6OpSJAAgBA7eowPG6yzXZZdTF1U03Vxly6ne5P+/m3UgXHvLo3aNCgmDt3buunFukTjNysWbOyGVaTtP7j4MGDs+vDhg3Lbo8ZMyZrQ7o/f2z+uMLndnTM0aNHx9SpU1v3nX/++dl6k6ldSf/+/WPBggXd/hoFSAAA6lc6x27AyuPQ474Y148bnY1vTFt7+ylPxfGQQw6JOXPmZNdTWBs1alRMmTIlJk6cmIXAPFQOHz68dV8KfbfddluXjt/RMVPITMExP34eOlN4nDZtWhYgVyY45gRIqin/kCb9TI8cOTK7L/1OXHHFFa23t99+++wDnCR9mJP/PgIANLIOw2Ma65i2NLNqW5bq+Lf/uWdmTPn84TFhwoSSdlXNj5VOchcuXJiFvCSFuEmTJmWBb8CAAcvsS5eFFcOOdHbM/HVTaEyVyHKuIZleK71v57UEb6ikFBqTiy++uDUsFkrBMcl/9tPttKUA2d7fQwCAXJ1Ptlp8zKOg2LH3DRmeVc5SANppp53KNtaxsItpMn/+/Cw8ttWvX7+VOmYKi+nEOu8Km+TdVkttxowZcd5556k8Unn/8+vsd2XjjTfOPkwpDJDpdmGX8eQHP/hB9juRPlTx9xAAaGQmzFlJKfikAJS6YJZjspx0ktteV9F0kttWqiiuzDGTdCKdn0zn3VZL/TWl4KjLKtV20UUXxbhx45YJj4899thyH8KkD1XSfenntu/+YyrdTACgltR56VF4LIFyBch0Ujt27NisS2mq/rUdq5X2pbGO+djFXD75TTrZTdcnT57cpWOmE+fUhbVtsEzHmDdvXkm+JsGRnqJw4ikAAIrrMDymsT07H3h0HDZhUiXbU7PKFSBTkEtdTMePH5/dTt1I80pJvi+NdUyTehRWTNLj0nPSlibH6eox77vvvmW6tObjw9L+FDJXZu0awZGeJq8+5tLvbf57UShV9dO+uyrYNgCg9ljnkS5b2QBZ2GW0UGc/gIX70oyRuVRVLByrmE+QU+yYM2fO7NJrrSjBkZ4oVR+feeaZ1i7f6Xb6ICafICdJ19N9ad9dc16uZnMBAKpKeCyxco+BrEWCIz3ZWWed1bqOaZJCYwqMeQXeUh0AQJc18pjHB26+Lts6YubB9lUrQJZiDcZSExzpadpW+Nur+AuLAADLU3ksExVIwREAgMbS0GMeTZizcho5QAqO9FSXG7cIANAt3a48fuPQ3eL0n/y+lG2pS9UIkPn6jLk0m2rh5DnlJjgCANCImlr+LY0GrDym8YxpuY58zONpP74nNh04KJ6aNzcuPXxIxRpYDyodIFNwzNeCzNdxTK+Zr2tXToIjAADUpw7DY6osFvreyQfFHiNPiFsnX5DdHrjr3uVtWZ2pVICcOHFiNjtkPgFIurz22muzUFfu8Cg4AgDQ0Bp1ttWnH34oC4gnXHlT3H71JVlozIPjURdNicH7HlyxRtaLSgTItus7Jqkb6zHHHFPy1yokOAIAQH3rdMzjOv03yS5TGMiDY959le6pdBfWNOPTqFGjlluKoJQERwAAaPDZVtva95SzBccSqFSA7N+/f9knyxEcAQCgMaxQeFz/XVuWqx0Np9wBMnVVTQRHAACokEYd85ikmVbz2VaT68eNzrZcmpGV7itngEyT4yxYsKBkx2tLcAQAgMbS7XUeKY1yBchUeRw+fHhZAqTgCAAAy2vYMY+qipVTjgBZrsqj4AgAAI2paOXx3KFbx6IXn1vmPsGy9Co9C2t3CI4AANCZppatASuPT82bG5cePqTdfafusK61HsugJwdIwREAABpbh+Fx+rknZZdtQ+LtV1+Srfl45zWXC49l0BMDpOAIAADFNeyYx6cffigG7rr3cgFxn+PPiCdm/zHm3X9H2RvXqHpSgBQcAQCAxGyrPVRPCJCCIwAArIBGXedxk222y6qLqZtqqjbm0u10f9pPeVUzQAqOAABAoQ7D49DjvhjXjxudjW9MW3v7Kb9qBEjBEQAAVlzDjnlMYx3TlmZWbctSHZVVyQApOAIAAO0pOuZRUOwZKhEgBUcAAOi+hq08JucO3ToWvfhcdn3nA4+OwyZMqkijaF85A6TgCAAAdKbD8PiNQ3drDY7JAzdfF+ttsvkyk+dQeeUIkIIjAACUQKPOtprWeUwzqp7+k9/HU/PmxqWHD8nWd6T6ShkgBUcAAKArOu22utl2g7PLTQcOirXW27AiDaJrShEgBUcAACidppZ/S6MBK4/0fCsTIAVHAABgRXQaHtM4x7Tl5t1/xzJLd5iJtfq6EyAFRwAAKIOmlq1+C48qj/VgRQKk4AgAAHRHh+FRVbG2dCVACo4AAFA+Db/O47sGDooTrrwpZt16Y1w/bnR2f5o856t3PlKRBtJ1nQVIwREAAFgZHYbHq04+qHWdx7RURx4ck3R/2p9CJT1LewFScAQAgApo1HUen2wJjGmdxxQQb7/6kuy+gbvund3+xqG7ZfvpmQoD5IQJE+K8884THAEAgJXSYXhM1cXt9hyeXX9i9h+zyw/tPzK7TOs/Fs7CSs+TB8jzxhwmOAIAQAU09JjHlxc8nV2mJTqSwfsenF0+dPfMbNwjPVuqFPfq1VtwBAAAVlqH4TEFj8J1HdPtNPbx0sOHZLd3PvDoijSQ7luyeHH0WmWVajcDAAAaRH0v9NhheExjG9Nsq6n7aqoyFk6Ok4LkYRMmVaSBdN+SJUuiV69e1W4GAABQBzoMj3nFMUkBsvB2XpG0FmTPtqR5cfTq3WnPZAAAoEQaeswjta25JTz2Fh4BAIAS6DBZtFdVvOG8Ma2zrO57ytllaxSlkcY8NvXuXe1mAABAQ1B5bFE4UU4a//jVOx8pa6MojaVpzKPwCAAAlEDR8PiNQ3eLpx9+KLt+1EVTWpfroOfTbRUAACqoqSmiESuPt199Sdw6+YLseppdtXC2VWpDtlRHH+ERAABYeR0mizw4JoXrPRYy22rPtmRJc/TqpdsqAABUgjGP1CxLdQAAAKWyQrOtUluWLG6OXn1UHgEAoDKaWjaVx2WcO3TrWPTicwJmD6fyCAAAlEqXkkXh+o7UDmMeAQCgchp2zGN7E+TkVBxrg9lWAQCAUimaLAqDogpkbVnS3By9eqs8AgBARTTqOo+5ziqQ9GzNacyjbqsAAEAJdGm21atOPihb6zGXB0rdV3u2panyqNsqAABURMOOeSx0wpU3LXM7n22Vni1VHnubbRUAACiBTpNFYZfV0358T2w6cFA8NW+u4FgjLNUBAAAV1KhjHr9x6G7L3P7eyQfFHiNPiFsnX5DdHrjr3uVtGSttafOSaOrdq9rNAAAA6kCH4fHphx/KAmLqsnr71ZdkoTEPjkddNCUG73twxRpJ9+i2CgAAldPQYx7X6b9Jdvm+PYa1Bse8+yo9n26rAABAqaxQstj3lLMFxxoiPAIAQOU0tfxbGg1aeWxr/XdtWa52UAZL0lIdva3zCAAArLxOw+MDN1+Xbbnrx43Otpx1Hns24REAACqoUWdbpfbptgoAAJRKp8li5wOPjsMmTKpUWygxlUcAAKicOi88qjzWM5VHAACgVCSLOqbyCAAAFVTnpccVmjCnLRPm9GzNixdH7z4+HwAAAFaeZFHHli5pjqZeKo8AAFAJTU1NsbRRK48mzKltxjwCAAClIlnUMd1WAQCgkppatgasPBrPWPvShDm9V1ml2s0AAADqgLJUHVuypDlW7b1GtZsBAAANoaHHPFLblixeHL10WwUAAEpAsqhjJswBAIAKauR1HqltS5YsiV69elW7GQAAQB0QHuuYbqsAAFA5xjxSs3RbBQAASkWyqGPCIwAAVI7KIzUrrfPYq3fvajcDAACoA8JjHRMeAQCggsy2Sq1qbl4cvXVbBQAASkCyqFFf3H6d4o+ZedMKHfPyOS93tzkAANDwmlr+LQ2VRwAAABqY8AgAAFAKxjzSE/Xv3z923HHHmDlzZrv377777jF+/Phl9k2bNi1GjhwZEydOXGbf+eefH+ecc05F2g0AANQm4bFGLViwIAuK06dPzwJhMnr06NZAmQJiv379sscVmj17dhYcZ82alT02Pf+II46IAQMGRLzvE9X4UgAAoC5Y55Ee64orroixY8dm4TGFwqlTpxb9YZ03b152mYJjkp6bh08T5gAAAB0RHmtYCn133HFHVnH885//nHVLLbRw4cLs048kr0Lmz8nvz7uyAgAAK8mYR3qyKVOmxPbbbx877bTTciGwvW6r+XPSlqqVgwcPzrqtpm6s0es9lWo2AABQY4THBpa6rqZurmns5OTJk2O7MZdWu0kAAFCzjHmkrqQurmlsZD5hTm7vvfeOZ6vYLgAAoGcTHutY4ZjHJC3JkbqrPvnkk1l31dyoUaOyLq8mzAEAgJWRzr1VHunB5syZs9x9ad3GjtZubLs2JAAAQDHCIwAAQAkY80iP1JUuphfsv2OceOXPYv3NtqxAiwAAgHomPNaxJYsXR68+vsUAAFAJKo/UrKVLmqOpV+9qNwMAAKgDwmMda25ujt69hUcAAKiI+p5sVXisZ7qtAgAApSJZ1LElzS3hsbdvMQAAVIIxj9SsJUuao5cxjwAAQAkIj3VMt1UAAKigpqYIlUdq0ZLm5uhlwhwAAKAEhMc6ptsqAABUTlPLv6V1PN2q8Finli5Zkl029epV5ZYAAAD1QHisU2ZaBQCACjPmkVrU3NwcvY13BAAASkR4rFNLW8Jjk/AIAAAVY51HapJuqwAAQClJF3WquSU89hYeAQCgcox5pBapPAIAAKUkXdSpJc1LWsKjZToAAKBSjHmkJqk8AgAApSRd1CnhEQAAKqup5d/SUHmkxixpbm4Jj5bqAAAASkN4rFPCIwAAVJjZVqlFuq0CAAClJF3UqSWLW8JjH99eAACoFLOtUpOWLGmOXr10WwUAAEpDeKxTuq0CAECFGfNILWpe3By9+6g8AgAApSE81imVRwAAqCxjHqlJS5c0R5MxjwAAQIkIj3WqefHi6G22VQAAqKCmlk3lkRqzpLk5evVWeQQAAEojC4+n7rBuyQ646uprlvR4rBzfCwAAqKx6PQfPwuNlD75UsgOmN6qUx6N75tz+i3jwNz+LYy65ttpNAQCAhvDMI/8T1395dJzx0/ur3ZSSSzlPt9U6ZbZVAACoMOs8UouERwAAoJSkizq1ZMmS6NWrV7WbAQAADcM6j9SkJYsXRy9LdQAAACUiXdQp3VYBAKCy6nzIo/BYr5pTeOxlnUcAAKA0hMc6tbS5WbdVAACopDovPUoXdWpJCo+9VR4BAIDSEB7rVOq22tuYRwAAqJimln9LQ+WRGpO6rTapPAIAACUiPNYplUcAAKgwYx6pRcY8AgAApSQ81qm0zmOfVdasdjMAAKBhNDU1xVKVR2qNyiMAAFBKwmOdSpXHXsY8AgBA5RjzSC0SHgEAgFKSLurUksWp22qvajcDAAAahjGP1KQlS5pVHgEAgJKRLuqUbqsAAFBZTS3/lobKIzWmefHi6N3HtxcAACgN6aJOLV2yJJp6GfMIAAAVY7ZVapFuqwAAQClJF3VKt1UAAKgss61Sk1QeAQCAUpIu6lS2VEev3tVuBgAANA5jHqlFSxa3hMc+wiMAAFAawmOd0m0VAAAqy5hHapJuqwAAQCkJj3VqyeLF0ctsqwAAUDnGPFKLljQ3R6/eKo8AAEBpCI91yphHAACorKaWf0tD5ZEao/IIAACUkvBYp1QeAQCgwox5pBYJjwAAQClJF3Wqubk5euu2CgAAFWOdR2rS0pbw2CQ8AgAAJSI81onbvntx7HX052K1vmtlt5ubF0fvgm6rf73v9ui77nqx+fs/WK0mAgBAXVN5pCas23/TOHuPd8fwk8fFR4/9QuuYx7m//WX87OIzYqudhsRRF11d7WYCAAA1SnisEzsfeHTM+NZ5cfvV34g7f/CtaF78Vlx5/P6x6J/PxdtvvN4SKD9f7SYCAEB9a2rZ6rfwKDzWk4+feGbccvmEeGPRv6J3nz7x/D8ej1VWWz223WNYbPreD1S7eQAAQA0THuvI7ocdHzOvvDDeeuO1aF68OLtvSXNz7Pf5CVVuGQAA1L+mln9L67j0KDzWmY+NOi1mfqclQL7+WvRZdbXY4eMHRL8tt6l2swAAgBonPNaZIUeeGLd97+LsevPbb8Xwk8+ucosAAKBBNDVFmG2VWpFmWN37uLHxm6sviZ0P+Eyst8nm1W4SAABQB4THOrTHESfFHd+/PD5+/OnVbgoAADQM6zxSc1Zbs28WINfeoH+1mwIAANQJ4bFODT3uC9VuAgAANBZjHqlFq/ddu9pNAAAA6ojw2IFTd1i32k2oeZc9+FK1mwAAUDXOJ1derZ1PGvPYwOr5G19u6RcHAKDROZ/sPueTPY/wCAAAUArGPAIAANDohEcAAIASaGr5tzRUHgEAAGhgwiMAAEAJmG0VAACAhic8AgAAlILZVgEAAGh0wiMAAEAJGPMIAABAwxMeAQAASsGYRwAAABqd8AgAAFACTS3/lobKIwAAAA1MeAQAACgFYx4BAABodMIjAABACVjnEQAAgIYnPAIAAJSCMY8AAAA0OuERAACgBBp2zOOpO6zb4ZMG7rp3nHDlTeVoDwAAAD1QtyqP8+6/I244b0wcNmFSqdsDAABQk5patvqtO3YSHi978KUOn3Tu0K3jobtnlqM9AAAA9EDdqjxut+fweODm60rdFgAAgNpltlUAAAAaXbfCY6o6rrXehqVuC10we/bsGDx4cEybNi1GjhxZ7eYAAFAHip1jpllEnX8WZ7bVDqSuq1TejjvuWNc/kAAAVJ5zTLqiW5XHtFSHmVa7Z/r06XHEEUfEoEGDYu7cua2/pOlTitysWbOyX+D+/fvHmDFj4pxzzomJEyfG+PHjs31tPxVq77nbb799HHLIIdlz80+S8n3pWD/96U9jzpw5lf3iAQDotvycbtSoUTF16tTsvvPPPz873+vKOWZ+/tiVc8z8tZJhw4Yt15b2zj+Jxh3z2Nlsq6y8FOzy8JZ+gdMfgSlTpmS/wOkXNf3Cp1/C+fPnZ4+577772v3F7ei5O+20U/acZMaMGdGvX7/sMh0z3Z/2AwBQe/785z9n53t5YBwxYkTrvs7OMdNjBw4c2KVzzOHDhy/z3Ntuu611X0fnn9S/bndbTQTM7st/ydMv/cKFC7NfviR9AjRp0qTsF3H33XdvDYDp058rrrhimWN09ty99947xo4dm92fjpE+XSo81kUXXVSBrxIAgFI766yzsstUIbz44otj8uTJ2blfkp9jpvO9dJ54yimnZLfz88RUTCh2jtnec1N1Muns/DNdb3QNO+aRyios/Sfp06D0C5t+GdMvcJJ3IejKc9Mvb/p0KT0+bTNnzsw+Jcqfr2sBAEBtStXDYubNm5ddFp7zbbTRRl06x2zvuakXW6H2zj+pf10Oj6qM5ZN+GRcsWNDuvvTJTvo0qaOw19lzUxeE9OlS+kORpMu86yoAALUphbv8fO7ZZ5+NLbbYYrnH5AEzhcK2j023OzvHbO+56fG5zs4/G16jj3k8d+jWsejF55brxrrvKWfHPsefUc62NYT0SU/qXpqX+vO+6/lg5TToOQ2ITrdX9LmpS0KaGCcf35gu06dMbbsmAACwYt549ZVYve/aVXnta6+9NjvXy7uQpq6qebUwl0JfCnkpIOZjE/PHJp2dY+bPHTduXNZ7LT03V+z8k/pWtPL41TsfWeZ2HiZvnXyB8Fgi6ZObVPrP+5KnWbPyX74U+NKMWR39Mnb23PTHId2f94tPfeHTHwm/2AAAK+dPP78+Xn/l5djr6M/Fan3Xqvjr591GU2hLYa9teEzy88R8Ztb8sUlXzzHTloJm2trua+/8s9G1vGOxNBqw8pjraOKcnQ88utRtaQjpF6u9X66OBtamT4ryAclJe2vwdPTcto/t6LUBAFgxQ448Kc7ceaO44/uXxd6fPbWiITJNfJgqgoUqeY5ZbB/1q8uzrZ7243ti04GD2n8wAAA0mBGfnxAzJp0Xd/3w23HnNVfE0OPGVq0SSQ/RqGMe27r08CHL3WcSHQAAGlWqPv7mqq/Hay//M7vdNkSWWnvVQXqWtrPQ1htLdVA2XVkrFACg1vXu0yeaFy+ON19blN2+4/uXtwTJSVVuVX1wPtmzFJ1tFbrLzxAAUO/G7zUgXn3phex6n1VWzbot7nnUyfGxUafFuN3eVeXW1T7nkz1Lp5XHfGbVJE2Qc9gEn6AAAEByz4++E81vv7VcaDTmkXrVYXj8xqG7tQbH5IGbr4v1Ntnc8hx1Jl+bR/95AIAVM+Nb58WSJc3Z+MaeFhq33377bCmOYcOGLTcza1fMnj07Bg8ebP1GltFheHz64Ydik222i9N/8vt4at7cbMKcJ2b/sZJtAwCAHumeH323R8+umoKj4gCl1mm31c22G5xdpiU61lpvw4o0qB7l1b20uGrhL3LhbEyzZs1qXbQ1/6QnSZ8WpdtjxoyJESNGZPfnj80fV/jcjo45evTo1gVik7SY6znnnJO1K+nfv3+24CsAAMXtfMBRPTI0Jvn5YLq88MIL48tf/nK3zh+hLbOtVtAhhxwSc+bMya6nsDZq1KhscdaJEydmv8R5qBw+fHjrvhT6brvtti4dv6Njpj8SKTjmx8//aKTwmLoipAApOAIAdF1PDY5JOudLgTCd5w0cODALjx3p7JwU2uo0PKZxjmnLzbv/jmWmyzX70YpJlcMkVSIXLlyY/ZImKcRNmjQp+4UdMGDAMvvSZWHFsCOdHTN/3RQa0ydJ1ggCAKAr549QSOWxitouIjp//vwsPLbVr1+/lTpmCovpk6e8K2ySd1sFAKCxtXf+CO0pus5jewtzqjiuvBQI2+sqmj4Bait9IrQyx0zSLFn5TFl5t1WfKAEANLaOzh/T+SK01WF4nHXrjXH9uNHt7kuB8qiLpsTgfQ8uW8PqWQpxY8eOzboEpOpfPqFOPhVy2pfGOuZ9z3P54OUZM2Zk1ydPntylYz722GNZF4S2fxjSMebNm1eZLxoAgIrr7vljGisJbXUYHu+85vLssm1IzJftSPuFx+5LQS51ERg/fnx2O3UjzSuD+b401jHN0FrYbTU9Lj0nbWlwc1ePed999y3TJSH9UUjS/vRHIu0zDhIAoP505/xR5ZH2dLrO484HHr1cQEzLdqT7CyfSoXOFXUYLdRbWCvelWbBy6VOhwrGK+QDnYsfsbHFYoREAoL4Unt915/zRBIu0x4Q5AAAAFCU81gBrMAIAANW2Qus8AgAA0JhUHgEAACiq6DqPAAAAoPIIAABAUcIjAAAARQmPAAAAFCU8AgAAUJTwCAAAQFHCIwAAAEUJjwAAABQlPAIAAFCU8AgAAEBRwiMAAABFCY8AAAAUJTwCAABQlPAIAABAUcIjAAAARQmPAAAAFCU8AgAAUJTwCAAAQFHCIwAAAEUJjwAAABQlPAIAAFCU8AgAAEBRwiMAAABFCY+daGpqqnYTAACoYc4nqSfCYwcue/ClajcBAIAa5nySeiM8AgAAUJTwCAAAQFHCIwAAAEUJjwAAABQlPAIAAFCU8AgAAEBRwiMAAABFCY8AAAAUJTwCAABQlPAIAABAUcIjAAAARQmPAAAAFCU8AgAAUJTwCAAAQFHCIwAAAEUJjwAAABQlPAIAAFCU8AgAAEBRwiMAAABFCY8AAAAUJTwCAABQlPAIAABAUcIjAAAARQmPAAAAFCU8AgAAUJTwCAAAQFHCIwAAAEUJjwAAABQlPAIAAFCU8AgAAEBRwiMAAABFCY8AAAAUJTwCAABQlPAIAABAUcIjAAAARQmPAAAAFCU8AgAAUJTwCAAAQFHCIwAAAEUJjwAAABQlPAIAAFCU8AgAAEBRwiMAAABFCY8AAAAUJTwCAABQlPAIAABAUcIjAAAARQmPAAAAFJWFx1N3WLd0B1x1tZIeDwAAgOr7f5tuZMQnhutRAAAAAElFTkSuQmCC;" vertex="1" parent="1">
          <mxGeometry x="310" y="250" width="911" height="671" as="geometry" />
        </mxCell>
      </root>
    </mxGraphModel>
  </diagram>
</mxfile>
